<?xml version="1.0" encoding="utf-8"?>
<!-- Generator: Adobe Illustrator 22.1.0, SVG Export Plug-In . SVG Version: 6.00 Build 0)  -->
<svg version="1.1" id="Layer_1" xmlns="http://www.w3.org/2000/svg" xmlns:xlink="http://www.w3.org/1999/xlink" x="0px" y="0px"
	 width="1160px" height="700px" viewBox="0 0 1160 700" style="enable-background:new 0 0 1160 700;" xml:space="preserve">
<style type="text/css">
	.st0{fill:#D78DA4;}
	.st1{fill:#CD718E;}
	.st2{fill:#E1B2A1;}
	.st3{fill:#FFFFFF;filter:url(#Adobe_OpacityMaskFilter);}
	.st4{mask:url(#mask0_201_155_1_);}
	.st5{fill:#CC9B8A;}
	.st6{fill:#9D796C;}
	.st7{fill:#FFFFFF;}
	.st8{fill:none;stroke:#CD718E;stroke-width:4;}
	.st9{fill:#EFE2E2;}
	.st10{fill:#FFFFFF;filter:url(#Adobe_OpacityMaskFilter_1_);}
	.st11{mask:url(#mask1_201_155_1_);}
	.st12{fill:#FFFFFF;filter:url(#Adobe_OpacityMaskFilter_2_);}
	.st13{mask:url(#mask2_201_155_1_);}
	.st14{fill:#FFB7CD;}
	.st15{fill-opacity:0.1;}
	.st16{fill:#663244;}
	.st17{fill:#7F4156;}
</style>
<rect x="-100" y="607" class="st0" width="1440" height="103"/>
<path class="st1" d="M358.8,650c-32.8,0-98.5-1-87.6,12c10.9,13,85.8,25,174.8,6s249.8-0.2,279,6s166.6,2,162.9-11
	c-3.6-13-93.5-19-204.4-19C572.8,644,391.6,650,358.8,650z"/>
<path class="st2" d="M391,93c0,0-19.9,146.7-22.3,214c-0.2,4.7-8.7,3-8.7,12s8.1,10,8,14c-2,108,23,269,23,269s-63,37-79,33
	c-10-12-30-18-30,0s25,24,30,22s20,12,43,6s39-13,48-9s21,11,36,3s-1-39-8-55s-33-153-33-239s33-270,33-270H391z"/>
<defs>
	<filter id="Adobe_OpacityMaskFilter" filterUnits="userSpaceOnUse" x="265" y="79" width="211.7" height="599.2">
		<feColorMatrix  type="matrix" values="1 0 0 0 0  0 1 0 0 0  0 0 1 0 0  0 0 0 1 0"/>
	</filter>
</defs>
<mask maskUnits="userSpaceOnUse" x="265" y="79" width="211.7" height="599.2" id="mask0_201_155_1_">
	<path class="st3" d="M391,93c0,0-19.9,146.7-22.3,214c-0.2,4.7-8.7,3-8.7,12s8.1,10,8,14c-2,108,23,269,23,269s-63,37-79,33
		c-10-12-30-18-30,0s25,24,30,22s20,12,43,6s39-13,48-9s21,11,36,3s-1-39-8-55s-33-153-33-239s33-270,33-270H391z"/>
</mask>
<g class="st4">
	<path class="st5" d="M377,79h58c0,0,23,45-5,59s-53-7-53-7V79z"/>
	<path class="st5" d="M345,222l24,26l19,92l-48,30L345,222z"/>
	<path class="st5" d="M265.9,626c4,10,27,23,46,23c8,5,28,13,49,2s38.1-25,38.1-25s19,6,27,0s5-25,5-25s13.1-4.8,14-4
		c12.8,12.5-0.9,25.9,15.9,29c27,5,16,34-8,41s-109,17-146,7S261.9,616,265.9,626z"/>
</g>
<path class="st6" d="M376,462.5c0,0-5.7,11.8-4.7,12.3c1,0.5,8.4-10.5,8.4-10.5L376,462.5z"/>
<path class="st6" d="M379,189.8c0,0-5.7,11.8-4.7,12.3s8.4-10.5,8.4-10.5L379,189.8z"/>
<path class="st6" d="M388.8,338.6c0,0,5.8,11.8,6.8,11.2c1-0.5-3.1-13-3.1-13L388.8,338.6z"/>
<path class="st6" d="M392.5,494.6c0,0-1.2,16.2,0,16.3c1.2,0.1,4.1-15.9,4.1-15.9L392.5,494.6z"/>
<path class="st6" d="M403.1,229.3c0,0,8.8,13.6,9.8,13c1-0.6-6.3-15.1-6.3-15.1L403.1,229.3z"/>
<path class="st6" d="M372.5,355.6c0,0-1.2,16.2,0,16.3c1.2,0.1,4.1-15.9,4.1-15.9L372.5,355.6z"/>
<path class="st6" d="M418.9,576.6c0,0,7.8,14.2,8.9,13.7c1-0.5-5.2-15.5-5.2-15.5L418.9,576.6z"/>
<path class="st6" d="M418.9,135.9c0,0,7.8,14.2,8.9,13.7c1-0.5-5.2-15.5-5.2-15.5L418.9,135.9z"/>
<path class="st6" d="M398.9,437.6c0,0,7.8,14.2,8.9,13.7c1-0.5-5.2-15.5-5.2-15.5L398.9,437.6z"/>
<path class="st6" d="M404.9,165.3c0,0,7.8,14.2,8.9,13.7c1-0.5-5.2-15.5-5.2-15.5L404.9,165.3z"/>
<path class="st6" d="M395.3,570.8c0,0-1.2,10.5,0,10.5c1.2,0.1,4.1-10.3,4.1-10.3L395.3,570.8z"/>
<path class="st6" d="M387.3,223.8c0,0-1.2,10.5,0,10.5c1.2,0.1,4.1-10.3,4.1-10.3L387.3,223.8z"/>
<path class="st6" d="M375.3,431.8c0,0-1.2,10.5,0,10.5c1.2,0.1,4.1-10.3,4.1-10.3L375.3,431.8z"/>
<path class="st6" d="M383.9,154.8c0,0-5.3,5.5-4.7,6c0.6,0.6,7-4.1,7-4.1L383.9,154.8z"/>
<path class="st6" d="M391.2,549.8c0,0-5.7,6.5-5,7.1c0.8,0.6,7.6-5,7.6-5L391.2,549.8z"/>
<path class="st6" d="M393.8,278c0,0,0.9,8.6,1.8,8.5c0.9-0.1,1.5-9,1.5-9L393.8,278z"/>
<path class="st6" d="M371.2,410.8c0,0-5.7,6.5-5,7.1c0.8,0.6,7.6-5,7.6-5L371.2,410.8z"/>
<path class="st6" d="M385.1,127.8c0,0-8.5,8.3-7.2,9.2c1.3,0.9,11.9-5.9,11.9-5.9L385.1,127.8z"/>
<path class="st6" d="M380.6,526.5c0,0-5.1,9.6-4.5,10c0.7,0.4,6.9-8.6,6.9-8.6L380.6,526.5z"/>
<path class="st6" d="M383.6,251.5c0,0-5.1,9.6-4.5,10c0.7,0.4,6.9-8.6,6.9-8.6L383.6,251.5z"/>
<path class="st6" d="M397.3,471.7c0,0,4.8,9.8,5.5,9.5c0.7-0.3-2.9-10.6-2.9-10.6L397.3,471.7z"/>
<path class="st6" d="M403.3,199.3c0,0,4.8,9.8,5.5,9.5c0.7-0.3-2.9-10.6-2.9-10.6L403.3,199.3z"/>
<path class="st6" d="M391.4,593.1c0,0-2.7,6.6-2,7c0.7,0.4,4-5,4-5L391.4,593.1z"/>
<path class="st6" d="M389.4,448.1c0,0-2.7,6.6-2,7c0.7,0.4,4-5,4-5L389.4,448.1z"/>
<path class="st6" d="M395.3,175.8c0,0-2.7,6.6-2,7c0.7,0.4,4-5,4-5L395.3,175.8z"/>
<path class="st6" d="M417.1,558.3c0,0,6.5,3,6.9,2.4c0.4-0.7-4.8-4.3-4.8-4.3L417.1,558.3z"/>
<path class="st6" d="M396.1,315.3c0,0,6.5,3,6.9,2.4c0.4-0.7-4.8-4.3-4.8-4.3L396.1,315.3z"/>
<path class="st6" d="M397.1,419.3c0,0,6.5,3,6.9,2.4c0.4-0.7-4.8-4.3-4.8-4.3L397.1,419.3z"/>
<path class="st6" d="M403.1,147c0,0,6.5,3,6.9,2.4c0.4-0.7-4.8-4.3-4.8-4.3L403.1,147z"/>
<path class="st6" d="M404.9,527.8c0,0,7,12.6,7.7,12.2c0.7-0.4-5.3-13.5-5.3-13.5L404.9,527.8z"/>
<path class="st6" d="M384.9,388.8c0,0,7,12.6,7.7,12.2c0.7-0.4-5.3-13.5-5.3-13.5L384.9,388.8z"/>
<path class="st6" d="M409.6,504.5c0,0,3,7.4,3.5,7c0.5-0.4-1.6-8.3-1.6-8.3L409.6,504.5z"/>
<path class="st6" d="M389.6,365.5c0,0,3,7.4,3.5,7c0.5-0.4-1.6-8.3-1.6-8.3L389.6,365.5z"/>
<rect x="207.4" y="148.8" transform="matrix(0.9781 -0.2079 0.2079 0.9781 -45.2212 65.5276)" class="st7" width="163.5" height="198.1"/>
<rect x="221" y="202.4" transform="matrix(0.9781 -0.2079 0.2079 0.9781 -38.9278 52.4345)" class="st8" width="18" height="18"/>
<rect x="255.5" y="186.2" transform="matrix(0.9781 -0.2079 0.2079 0.9781 -34.5026 66.0541)" class="st9" width="83" height="22"/>
<rect x="228.9" y="239.6" transform="matrix(0.9781 -0.2079 0.2079 0.9781 -46.4831 54.8894)" class="st8" width="18" height="18"/>
<rect x="263.4" y="223.3" transform="matrix(0.9781 -0.2079 0.2079 0.9781 -42.0578 68.5088)" class="st9" width="83" height="22"/>
<rect x="236.8" y="276.7" transform="matrix(0.9781 -0.2079 0.2079 0.9781 -54.0385 57.3444)" class="st8" width="18" height="18"/>
<rect x="271.3" y="260.5" transform="matrix(0.9781 -0.2079 0.2079 0.9781 -49.6133 70.9638)" class="st9" width="83" height="22"/>
<rect x="244.7" y="313.9" transform="matrix(0.9781 -0.2079 0.2079 0.9781 -61.5939 59.7992)" class="st8" width="18" height="18"/>
<rect x="279.2" y="297.7" transform="matrix(0.9781 -0.2079 0.2079 0.9781 -57.1687 73.4188)" class="st9" width="83" height="22"/>
<path class="st2" d="M777,107c0,0,9.4,124.3,13.9,191.4c0.2,3.7,5.1,1.6,8.1,10.6s-6.3,11.4-6,15c7.6,107.7-16,275-16,275
	s64.2,44.8,80,40c13,0,24-10.4,28-4s-3,26.6-22.3,19.9c-8.7,6.6-19.3,13-42.6,8.2c-23.3-4.8-41.3-8.6-50.1-4.2s-18.7,9.8-34.1,2.6
	c-15.4-7.2-10.9-28.6,5.1-55.3c16-26.7,19.5-156,15-241.9S725,112,725,112L777,107z"/>
<defs>
	<filter id="Adobe_OpacityMaskFilter_1_" filterUnits="userSpaceOnUse" x="685" y="90" width="211.7" height="588.2">
		<feColorMatrix  type="matrix" values="1 0 0 0 0  0 1 0 0 0  0 0 1 0 0  0 0 0 1 0"/>
	</filter>
</defs>
<mask maskUnits="userSpaceOnUse" x="685" y="90" width="211.7" height="588.2" id="mask1_201_155_1_">
	<path class="st10" d="M777,107c0,0,9.4,124.3,13.9,191.4c0.2,3.7,5.1,1.6,8.1,10.6s-6.3,11.4-6,15c7.6,107.7-16,275-16,275
		s64.2,44.8,80,40c13,0,24-10.4,28-4s-3,26.6-22.3,19.9c-8.7,6.6-19.3,13-42.6,8.2c-23.3-4.8-41.3-8.6-50.1-4.2s-18.7,9.8-34.1,2.6
		c-15.4-7.2-10.9-28.6,5.1-55.3c16-26.7,19.5-156,15-241.9S725,112,725,112L777,107z"/>
</mask>
<g class="st11">
	<path class="st5" d="M718,90h58c0,0,32,19,7,47s-65,17-65,17V90z"/>
	<path class="st5" d="M895.8,626c-4,10-27,23-46,23c-8,5-28,13-49,2s-38.1-25-38.1-25s-19,6-27,0s-5-25-5-25s-13.1-4.8-14-4
		c-12.8,12.5,0.9,25.9-15.9,29c-27,5-16,34,8,41s109,17,146,7S899.8,616,895.8,626z"/>
</g>
<path class="st6" d="M787.9,460.6c0,0,6.5,11.4,5.5,11.9c-1,0.6-9.1-9.9-9.1-9.9L787.9,460.6z"/>
<path class="st6" d="M783.8,193.1c0,0,6.5,11.4,5.5,11.9c-1,0.6-9.1-9.9-9.1-9.9L783.8,193.1z"/>
<path class="st6" d="M760.6,341.3c0,0-4.9,12.1-6,11.7c-1.1-0.4,2.2-13.2,2.2-13.2L760.6,341.3z"/>
<path class="st6" d="M773.6,493.8c0,0,2.3,16.1,1.1,16.3c-1.1,0.2-5.2-15.5-5.2-15.5L773.6,493.8z"/>
<path class="st6" d="M748.6,244.1c0,0-7.8,14.2-8.9,13.7c-1-0.5,5.2-15.5,5.2-15.5L748.6,244.1z"/>
<path class="st6" d="M790.2,362.5c0,0,9.3,13.3,8.4,14c-0.9,0.7-11.7-11.5-11.7-11.5L790.2,362.5z"/>
<path class="st6" d="M753,577.5c0,0-6.8,14.7-7.9,14.3c-1.1-0.5,4.1-15.9,4.1-15.9L753,577.5z"/>
<path class="st6" d="M788,258c0,0,9.1,11.6,8,12s-12.7-10.5-12.7-10.5L788,258z"/>
<path class="st6" d="M763.2,437.4c0,0-6.8,14.7-7.9,14.3c-1.1-0.5,4.1-15.9,4.1-15.9L763.2,437.4z"/>
<path class="st6" d="M738.3,166.2c0,0-6.8,14.7-7.9,14.3c-1.1-0.5,4.1-15.9,4.1-15.9L738.3,166.2z"/>
<path class="st6" d="M776.2,570c0,0,1.9,10.4,0.7,10.5c-1.2,0.1-4.8-10-4.8-10L776.2,570z"/>
<path class="st6" d="M760,223.2c0,0,1.9,10.4,0.7,10.5c-1.2,0.1-4.8-10-4.8-10L760,223.2z"/>
<path class="st6" d="M786.4,429.9c0,0,1.9,10.4,0.7,10.5c-1.2,0.1-4.8-10-4.8-10L786.4,429.9z"/>
<path class="st6" d="M769,169.9c0,0,5.7,5.1,5.1,5.7c-0.6,0.6-7.2-3.6-7.2-3.6L769,169.9z"/>
<path class="st6" d="M778.8,548.7c0,0,6.2,6.1,5.5,6.7c-0.7,0.6-8-4.5-8-4.5L778.8,548.7z"/>
<path class="st6" d="M757.3,277.8c0,0-0.3,8.7-1.2,8.6c-1-0.1-2.2-8.9-2.2-8.9L757.3,277.8z"/>
<path class="st6" d="M794.2,408.9c0,0,6.2,6.1,5.5,6.7c-0.7,0.6-8-4.5-8-4.5L794.2,408.9z"/>
<path class="st6" d="M772.5,323.9c0,0,6.2,6.1,5.5,6.7c-0.7,0.6-8-4.5-8-4.5L772.5,323.9z"/>
<path class="st6" d="M782.5,284c0,0,0.8,10-0.1,10.4c-0.9,0.4-3.1-10.4-3.1-10.4L782.5,284z"/>
<path class="st6" d="M777.8,235c0,0,6.2,6.1,5.5,6.7c-0.7,0.6-8-4.5-8-4.5L777.8,235z"/>
<path class="st6" d="M780,150.6c0,0,9.1,7.7,7.8,8.7c-1.3,1-12.3-5.1-12.3-5.1L780,150.6z"/>
<path class="st6" d="M785.7,524.8c0,0,5.8,9.2,5.1,9.7c-0.6,0.4-7.4-8.1-7.4-8.1L785.7,524.8z"/>
<path class="st6" d="M795.3,315.7c0,0,5.8,9.2,5.1,9.7c-0.6,0.4-7.4-8.1-7.4-8.1L795.3,315.7z"/>
<path class="st6" d="M767.2,471.2c0,0-4.1,10.1-4.8,9.8c-0.7-0.3,2.2-10.8,2.2-10.8L767.2,471.2z"/>
<path class="st6" d="M742.2,200c0,0-4.1,10.1-4.8,9.8c-0.7-0.3,2.2-10.8,2.2-10.8L742.2,200z"/>
<path class="st6" d="M768.6,594c0,0,3.1,6.4,2.5,6.8c-0.6,0.4-4.3-4.7-4.3-4.7L768.6,594z"/>
<path class="st6" d="M773.5,447.2c0,0,3.1,6.4,2.5,6.8c-0.6,0.4-4.3-4.7-4.3-4.7L773.5,447.2z"/>
<path class="st6" d="M748.6,175.9c0,0,3.1,6.4,2.5,6.8c-0.6,0.4-4.3-4.7-4.3-4.7L748.6,175.9z"/>
<path class="st6" d="M754.5,559.1c0,0-6.2,3.5-6.7,2.8c-0.5-0.6,4.5-4.6,4.5-4.6L754.5,559.1z"/>
<path class="st6" d="M757.5,315.2c0,0-6.2,3.5-6.7,2.8c-0.5-0.6,4.5-4.6,4.5-4.6L757.5,315.2z"/>
<path class="st6" d="M760.8,415c0,0-6.2,3.5-6.7,2.8c-0.5-0.6,4.5-4.6,4.5-4.6L760.8,415z"/>
<path class="st6" d="M758.3,148.8c0,0-3.8,6-4.5,5.7c-0.7-0.3,1.7-6.2,1.7-6.2L758.3,148.8z"/>
<path class="st6" d="M763.6,527.8c0,0-6.1,13-6.9,12.7c-0.7-0.3,4.3-13.8,4.3-13.8L763.6,527.8z"/>
<path class="st6" d="M773.8,387.7c0,0-6.1,13-6.9,12.7c-0.7-0.3,4.3-13.8,4.3-13.8L773.8,387.7z"/>
<path class="st6" d="M757.2,504.9c0,0-2.5,7.6-3,7.2s1-8.4,1-8.4L757.2,504.9z"/>
<path class="st6" d="M758.9,369.8c0,0-2.5,7.6-3,7.2c-0.6-0.3,1-8.4,1-8.4L758.9,369.8z"/>
<path class="st2" d="M292.6-37.5c-18.9,19.7-25.8,158.5-28.5,166.9c-2.7,8.5-11.1,16.9-1.8,47.7s27.9,52.8,30.3,49.4
	c2.5-3.4-23.2-38.4-19.3-39.1c3.9-0.6,25.2,45.2,32.7,48.1c7.5,2.8-27.4-52.9-23.5-53.6c3.9-0.6,27.6,54.5,33.5,53.6
	s-28.7-61.4-24.9-56.9c3.7,4.4,25.7,47,32.9,47.9c7.2,0.9-31.1-55.3-29.3-69.6c1.8-14.4,11.3-13.4,11.3-13.4s0,0,6.9-1
	c-3.9-9-19-9.7-20.2-17.6c-1.2-7.9,12.5-134.1,43.4-156.4C336-31.5,311.5-57.1,292.6-37.5z"/>
<path class="st7" d="M383,0l-13,116c0,0,36.4,11,67.5,14s70.1,0,70.1,0s20.4-59.5,78.1-57.5s74.6,63.5,74.6,63.5s31.1,9,63,9
	c32,0,65.7-15,65.7-15L776,0H383z"/>
<defs>
	<filter id="Adobe_OpacityMaskFilter_2_" filterUnits="userSpaceOnUse" x="370" y="-17.7" width="442.9" height="254.1">
		<feColorMatrix  type="matrix" values="1 0 0 0 0  0 1 0 0 0  0 0 1 0 0  0 0 0 1 0"/>
	</filter>
</defs>
<mask maskUnits="userSpaceOnUse" x="370" y="-17.7" width="442.9" height="254.1" id="mask2_201_155_1_">
	<path class="st12" d="M383,0l-13,116c0,0,36.4,11,67.5,14s70.1,0,70.1,0s20.4-59.5,78.1-57.5s74.6,63.5,74.6,63.5s31.1,9,63,9
		c32,0,65.7-15,65.7-15L776,0H383z"/>
</mask>
<g class="st13">
	<path class="st14" d="M382.5,54c-5,0-18-31-10-34s10,6,10,6s8-12,14-6S387.5,54,382.5,54z"/>
	<path class="st14" d="M426.5,99c-5,0-18-31-10-34s10,6,10,6s8-12,14-6S431.5,99,426.5,99z"/>
	<path class="st14" d="M454.5,36c-5,0-18-31-10-34s10,6,10,6s8-12,14-6S459.5,36,454.5,36z"/>
	<path class="st14" d="M526.5,63c-5,0-18-31-10-34c8-3,10,6,10,6s8-12,14-6S531.5,63,526.5,63z"/>
	<path class="st14" d="M674.5,86c-5,0-18-31-10-34s10,6,10,6s8-12,14-6S679.5,86,674.5,86z"/>
	<path class="st14" d="M719.5,18c-5,0-18-31-10-34s10,6,10,6s8-12,14-6S724.5,18,719.5,18z"/>
	<path class="st14" d="M797.5,62c-5,0-18-31-10-34s10,6,10,6s8-12,14-6S802.5,62,797.5,62z"/>
	<path class="st14" d="M606.1,27.2c-3.2,0-11.6-20-6.4-21.9c5.2-1.9,6.4,3.9,6.4,3.9s5.2-7.7,9-3.9C619,9.2,609.3,27.2,606.1,27.2z"
		/>
	<path class="st14" d="M675.1,144.2c-3.2,0-11.6-20-6.4-21.9c5.2-1.9,6.4,3.9,6.4,3.9s5.2-7.7,9-3.9
		C688,126.2,678.3,144.2,675.1,144.2z"/>
	<path class="st14" d="M493.1,132.2c-3.2,0-11.6-20-6.4-21.9c5.2-1.9,6.4,3.9,6.4,3.9s5.2-7.7,9-3.9
		C506,114.2,496.3,132.2,493.1,132.2z"/>
	<path class="st14" d="M743.1,120.2c-3.2,0-11.6-20-6.4-21.9c5.2-1.9,6.4,3.9,6.4,3.9s5.2-7.7,9-3.9
		C756,102.2,746.3,120.2,743.1,120.2z"/>
	<ellipse class="st15" cx="588.5" cy="138.7" rx="100.5" ry="97.7"/>
</g>
<path class="st16" d="M950.4,94.4c-1,2.6-3.9,3.8-6.5,2.8c-2.5-1-3.8-3.9-2.7-6.5c0.1-0.1,0.1-0.3,0.2-0.4L826.1,43.7
	c-2.3-0.9-4.9,0.2-5.9,2.5l-22.1,54.7c-0.9,2.3,0.2,4.9,2.5,5.9l115.3,46.6c0-0.1,0.1-0.3,0.2-0.4c1-2.6,3.9-3.8,6.5-2.8
	c2.5,1,3.8,3.9,2.7,6.5c-0.1,0.1-0.1,0.3-0.2,0.4l35.9,14.5c2.3,0.9,4.9-0.2,5.9-2.5l22.1-54.7c0.9-2.3-0.2-4.9-2.5-5.9L950.5,94
	C950.5,94.1,950.4,94.3,950.4,94.4z"/>
<path class="st17" d="M953.3,110.1c-1.3,2.4-4.3,3.4-6.7,2.1c-2.4-1.3-3.3-4.3-2-6.7c0.1-0.1,0.1-0.3,0.2-0.4L835,46.7
	c-2.2-1.2-4.9-0.3-6.1,1.9l-27.7,52.1c-1.2,2.2-0.3,4.9,1.9,6.1l109.8,58.4c0.1-0.1,0.1-0.3,0.2-0.4c1.3-2.4,4.3-3.4,6.7-2.1
	c2.4,1.3,3.3,4.3,2,6.7c-0.1,0.1-0.1,0.3-0.2,0.4l34.2,18.2c2.2,1.2,4.9,0.3,6.1-1.9l27.7-52.1c1.2-2.2,0.3-4.9-1.9-6.1l-34.2-18.2
	C953.5,109.8,953.4,110,953.3,110.1z"/>
<path class="st7" d="M948.4,142.9c-0.1,0-0.1-0.1-0.2-0.1c-0.4-1.4-0.8-3-1-4.1c-0.1-0.5-0.3-0.8-0.8-1l-0.1,0
	c-0.2-0.1-0.4-0.1-0.4,0.1l-1.1,4.3c-0.7,0-1.2,0-1.4,0.3c0,0,0,0,0,0.1c0,0,0,0,0,0.1c-0.2,0.3,0.1,0.8,0.5,1.3l-3,3.3
	c-0.1,0.2,0,0.3,0.2,0.4c0,0,0.1,0,0.1,0c0.4,0.2,0.9,0.2,1.3,0.1c1.1-0.4,2.6-0.9,4.1-1.4c0.1,0.1,0.2,0.1,0.2,0.1l5.8,3l-7.3,8.3
	c-0.3,0.5-0.1,0.7,0.4,0.9l0.1,0.1c0.3,0.1,0.6,0.1,0.9-0.2l11.5-6.3l5.5,2.9c0.6,0.3,3.1,0.6,3.5-0.2c0,0,0,0,0-0.1c0,0,0,0,0-0.1
	c0.5-0.9-1.2-2.7-1.8-3l-5.6-2.9l-1.1-12.7c0-0.3-0.1-0.7-0.4-0.8l-0.1-0.1c-0.4-0.2-0.8-0.3-1,0.2l-3,10.5L948.4,142.9z"/>
<path class="st2" d="M801.9-97.5c24.9,11.2,83.3,137.3,89,144.1c5.7,6.9,16.6,11.5,19.6,43.5c3,32-6.1,59.4-9.6,57.1
	s7.2-44.4,3.3-43.5c-3.9,0.9-4.3,44.2-15.1,50.2c-5.8,3.2,1-10.7,4-26c2.6-13.3,2.3-26.3,0.5-25.9c-3.9,0.9-0.7,43.9-15.5,50.9
	c-7.6,3.6,0.6-5.9,4-22c3.2-15.2,0.5-30.9-1-28c-3,6-2,42.2-14,47c-5.9,2.4,0.5-9.3,3-25c2.6-16.2,1.5-34.7,0-43
	c-2.9-16.4-10-25-10-25s-3-1-11-4c7-10,11.8-3.2,10-11c-1.8-7.8-58.1-108.6-95-117.7C764-75.7,777.1-108.7,801.9-97.5z"/>
</svg>
