<svg width="1160" height="700" viewBox="0 0 1160 700" fill="none" xmlns="http://www.w3.org/2000/svg">
  <rect width="1160" height="700" fill="#CD718E"/>
  <path
    opacity="0.1"
    fill-rule="evenodd"
    clip-rule="evenodd"
    d="M1034 233.785C1034 233.785 1036.02 221.973 1046.97 222C1055.02 222.018 1057.29 227.124 1057.29 227.124C1057.29 227.124 1062.02 224.432 1066.58 226.265C1072.52 228.656 1073.23 233.644 1073.23 233.644C1073.23 233.644 1050.83 233.785 1034 233.785Z"
    fill="white"/>
  <path
    opacity="0.1"
    fill-rule="evenodd"
    clip-rule="evenodd"
    d="M1094 604C1094 604 1090.92 585.961 1074.16 586C1061.84 586.028 1058.38 593.826 1058.38 593.826C1058.38 593.826 1051.13 589.715 1044.17 592.515C1035.08 596.166 1034 603.786 1034 603.786C1034 603.786 1068.26 604 1094 604Z"
    fill="white"/>
  <path
    opacity="0.1"
    fill-rule="evenodd"
    clip-rule="evenodd"
    d="M937.653 298.345C937.653 298.345 931.306 288.035 916.669 289.073C904.173 289.957 899.669 298.698 899.669 298.698C899.669 298.698 893.42 294.306 886.338 297.156C877.099 300.874 876 308.631 876 308.631L978.845 310.768C978.845 310.768 971.919 298.491 958.669 303.073C953.919 295.323 942.169 295.073 937.653 298.345Z"
    fill="white"/>
  <path
    opacity="0.1"
    fill-rule="evenodd"
    clip-rule="evenodd"
    d="M385.479 84.7212C385.479 84.7212 394.798 69.5838 416.289 71.1078C434.636 72.4057 441.248 85.2395 441.248 85.2395C441.248 85.2395 450.423 78.7911 460.821 82.9755C474.386 88.4344 476 99.8234 476 99.8234L325 102.961C325 102.961 335.169 84.9356 354.623 91.663C361.597 80.2842 378.849 79.9172 385.479 84.7212Z"
    fill="white"/>
  <path
    opacity="0.2"
    fill-rule="evenodd"
    clip-rule="evenodd"
    d="M1023.96 336.893C1023.96 336.893 1019.23 327.283 1008.56 328.043C999.442 328.691 997.076 337 997.076 337C997.076 337 991.703 333.932 986.539 336.021C979.802 338.746 979 344.434 979 344.434L1054 346C1054 346 1045.69 330.513 1023.96 336.893Z"
    fill="white"/>
  <path
    opacity="0.2"
    fill-rule="evenodd"
    clip-rule="evenodd"
    d="M-9.54127 572.34C-9.54127 572.34 -2.53896 557.924 13.2578 559.064C26.7456 560.037 30.2476 572.5 30.2476 572.5C30.2476 572.5 38.1996 567.898 45.8429 571.032C55.8137 575.12 57 583.651 57 583.651L-54 586C-54 586 -41.7036 562.769 -9.54127 572.34Z"
    fill="white"/>
</svg>
