<svg width="34" height="33" viewBox="0 0 34 33" fill="none" xmlns="http://www.w3.org/2000/svg">
<path fill-rule="evenodd" clip-rule="evenodd" d="M34 9.90012H32.6629C30.167 9.90012 28.3329 11.9969 28.3329 14.3037V18.6951C28.3329 21.0019 30.167 23.0987 32.6629 23.0987H33.9988V27.5686C33.9988 30.896 31.7898 33 28.3622 33H5.63777C2.21017 33 0 30.896 0 27.5686V23.0999H1.33587C3.83178 23.0999 5.66707 21.0031 5.66707 18.6951V14.3037C5.66707 11.9969 3.83178 9.90012 1.33587 9.90012H0V5.43143C0 2.10405 2.20895 0 5.63777 0H28.3635C31.791 0 34 2.10405 34 5.43143V9.90012ZM18.1784 29.7004C22.5364 29.7004 26.0666 26.2644 26.0666 22.0249V14.2735C26.0666 10.0352 22.5364 6.60048 18.1796 6.60048H15.8204C11.4636 6.60048 7.93219 10.0352 7.93219 14.2735V22.0261C7.93219 26.2644 11.4636 29.7004 15.8204 29.7004H18.1784Z" fill="white"/>
<path fill-rule="evenodd" clip-rule="evenodd" d="M15.6652 8H18.1919L18.1907 8.00121C21.8564 8.00121 25 11.2353 25 14.781V22.2202C25 25.7659 21.8564 29 18.1919 29H15.6652C11.9995 29 9 25.7659 9 22.2202V14.7798C9 11.2341 11.9995 8 15.6652 8ZM17.692 23.4736C20.2113 23.4736 22.7134 21.3668 22.7134 19.0479V14.6355C22.7134 12.3178 20.2113 10.211 17.692 10.211H16.3068C13.7887 10.211 11.2854 12.3178 11.2854 14.6367V19.0491C11.2854 21.3668 13.7887 23.4736 16.3068 23.4736H17.692Z" fill="white"/>
<path d="M16.4639 20.9141H16.341C14.6641 20.9141 13.0959 19.946 13.0959 18.2231V16.5954C13.0959 16.5954 13.0935 16 12.5432 16C11.9953 16 12 16.5954 12 16.5954V18.2231C12 20.5426 14.0631 22 16.341 22H16.4639C16.4639 22 17 21.9917 17 21.4678C17 20.9415 16.4639 20.9141 16.4639 20.9141Z" fill="white"/>
</svg>
