<svg width="139" height="29" viewBox="0 0 139 29" fill="none" xmlns="http://www.w3.org/2000/svg">
<path fill-rule="evenodd" clip-rule="evenodd" d="M28.7 9.02997H27.605C25.561 9.02997 24.059 10.768 24.059 12.68V16.32C24.059 18.232 25.561 19.97 27.605 19.97H28.699V23.675C28.699 26.433 26.89 28.177 24.083 28.177H5.47296C2.66596 28.177 0.855957 26.433 0.855957 23.675V19.971H1.94996C3.99396 19.971 5.49696 18.233 5.49696 16.32V12.68C5.49696 10.768 3.99396 9.02997 1.94996 9.02997H0.855957V5.32597C0.855957 2.56797 2.66496 0.823975 5.47296 0.823975H24.084C26.891 0.823975 28.7 2.56797 28.7 5.32597V9.02997ZM15.743 25.442C19.312 25.442 22.203 22.594 22.203 19.08V12.655C22.203 9.14198 19.312 6.29497 15.744 6.29497H13.812C10.244 6.29497 7.35196 9.14198 7.35196 12.655V19.081C7.35196 22.594 10.244 25.442 13.812 25.442H15.743Z" fill="white"/>
<path fill-rule="evenodd" clip-rule="evenodd" d="M13.694 7.20593H15.746L15.745 7.20693C18.722 7.20693 21.275 9.87493 21.275 12.7999V18.9369C21.275 21.8619 18.722 24.5299 15.746 24.5299H13.694C10.717 24.5299 8.28101 21.8619 8.28101 18.9369V12.7989C8.28101 9.87393 10.717 7.20593 13.694 7.20593ZM15.34 19.9709C17.386 19.9709 19.418 18.2329 19.418 16.3199V12.6799C19.418 10.7679 17.386 9.02993 15.34 9.02993H14.215C12.17 9.02993 10.137 10.7679 10.137 12.6809V16.3209C10.137 18.2329 12.17 19.9709 14.215 19.9709H15.34Z" fill="white"/>
<path d="M14.8459 18.147H14.7419C13.3219 18.147 11.9939 17.334 11.9939 15.887V14.52C11.9939 14.52 11.9919 14.02 11.5259 14.02C11.0619 14.02 11.0659 14.52 11.0659 14.52V15.887C11.0659 17.835 12.8129 19.059 14.7419 19.059H14.8459C14.8459 19.059 15.2999 19.052 15.2999 18.612C15.2999 18.17 14.8459 18.147 14.8459 18.147Z" fill="white"/>
<path fill-rule="evenodd" clip-rule="evenodd" d="M47.0689 18.4959L47.3689 19.8859L47.3699 19.8849H48.4829V13.2249C48.4829 12.0859 48.1979 11.2579 47.6269 10.7409C47.0559 10.2249 46.1789 9.96692 44.9939 9.96692C44.4026 9.96748 43.8136 10.0421 43.2409 10.1889C42.6812 10.3279 42.1406 10.5344 41.6309 10.8039L42.0939 11.9339C43.1389 11.4359 44.0759 11.1869 44.9029 11.1869C45.6419 11.1869 46.1769 11.3689 46.5119 11.7339C46.8479 12.0989 47.0149 12.6649 47.0149 13.4309V14.0359L45.3289 14.0879C42.1209 14.1839 40.5159 15.2159 40.5159 17.1879C40.5159 18.1069 40.7969 18.8169 41.3549 19.3159C41.9139 19.8139 42.6859 20.0639 43.6709 20.0639C44.4089 20.0639 45.0229 19.9549 45.5149 19.7379C46.0069 19.5209 46.5029 19.1069 46.9969 18.4959H47.0689ZM46.1769 18.0869C45.6419 18.5909 44.9069 18.8439 43.9699 18.8439C43.3779 18.8439 42.9179 18.7039 42.5879 18.4259C42.2579 18.1459 42.0939 17.7399 42.0939 17.2059C42.0939 16.5219 42.3589 16.0189 42.8869 15.6959C43.4159 15.3719 44.2779 15.1889 45.4739 15.1479L46.9789 15.0859V15.9679C46.9789 16.8769 46.7109 17.5819 46.1769 18.0869Z" fill="white"/>
<path d="M53.666 19.886L49.896 10.126H51.509L53.647 15.915C54.131 17.268 54.415 18.145 54.499 18.55H54.573C54.639 18.234 54.848 17.584 55.202 16.596C55.556 15.608 56.349 13.45 57.582 10.126H59.195L55.425 19.886H53.665H53.666Z" fill="white"/>
<path fill-rule="evenodd" clip-rule="evenodd" d="M60.8428 6.73893C60.6738 6.89493 60.5898 7.14393 60.5898 7.48293C60.5898 7.81393 60.6728 8.06093 60.8428 8.22593C61.0129 8.38976 61.2418 8.47808 61.4778 8.47093C61.7102 8.4743 61.9347 8.38633 62.1028 8.22593C62.2778 8.06093 62.3658 7.81393 62.3658 7.48293C62.3658 7.14993 62.2778 6.90293 62.1028 6.74293C61.9278 6.58293 61.7178 6.50293 61.4778 6.50293C61.2434 6.49515 61.0153 6.57992 60.8428 6.73893ZM62.2198 19.8849H60.7148V10.1269H62.2198V19.8849Z" fill="white"/>
<path fill-rule="evenodd" clip-rule="evenodd" d="M71.146 18.4959L71.445 19.8859V19.8849H72.56V13.2249C72.56 12.0859 72.275 11.2579 71.703 10.7409C71.132 10.2249 70.255 9.96692 69.071 9.96692C68.4794 9.96739 67.8901 10.042 67.317 10.1889C66.7574 10.3279 66.2168 10.5344 65.707 10.8039L66.17 11.9339C67.216 11.4359 68.152 11.1869 68.98 11.1869C69.718 11.1869 70.253 11.3689 70.588 11.7339C70.924 12.0989 71.091 12.6649 71.091 13.4309V14.0359L69.406 14.0879C66.197 14.1839 64.592 15.2159 64.592 17.1879C64.592 18.1069 64.873 18.8169 65.432 19.3159C65.99 19.8139 66.763 20.0639 67.747 20.0639C68.485 20.0639 69.1 19.9549 69.591 19.7379C70.084 19.5209 70.579 19.1069 71.074 18.4959H71.146ZM70.253 18.0869C69.719 18.5909 68.984 18.8439 68.046 18.8439C67.454 18.8439 66.994 18.7039 66.664 18.4259C66.335 18.1459 66.17 17.7399 66.17 17.2059C66.17 16.5219 66.435 16.0189 66.963 15.6959C67.492 15.3719 68.354 15.1889 69.551 15.1479L71.055 15.0859V15.9679C71.055 16.8769 70.788 17.5819 70.253 18.0869Z" fill="white"/>
<path d="M81.9749 17.223C81.9749 18.131 81.6309 18.832 80.9419 19.325C80.2529 19.817 79.2859 20.063 78.0419 20.063C76.7239 20.063 75.6959 19.859 74.9589 19.449V18.077C75.4359 18.315 75.9489 18.501 76.4959 18.639C77.0129 18.7712 77.5442 18.8397 78.0779 18.843C78.8619 18.843 79.4679 18.72 79.8899 18.474C80.3129 18.228 80.5249 17.851 80.5249 17.348C80.5249 16.968 80.3569 16.642 80.0219 16.372C79.6859 16.102 79.0319 15.783 78.0589 15.416C77.1349 15.076 76.4779 14.781 76.0879 14.53C75.6979 14.277 75.4079 13.991 75.2179 13.67C75.0279 13.35 74.9329 12.967 74.9329 12.522C74.9329 11.726 75.2619 11.098 75.9209 10.638C76.5789 10.178 77.4819 9.948 78.6309 9.948C79.7009 9.948 80.7449 10.162 81.7659 10.59L81.2319 11.792C80.2349 11.388 79.3309 11.186 78.5219 11.186C77.8089 11.186 77.2719 11.296 76.9079 11.516C76.5459 11.734 76.3649 12.038 76.3649 12.424C76.3649 12.684 76.4319 12.908 76.5689 13.092C76.7039 13.275 76.9229 13.45 77.2259 13.617C77.5269 13.783 78.1079 14.023 78.9659 14.338C80.1439 14.76 80.9399 15.184 81.3539 15.611C81.7669 16.039 81.9749 16.576 81.9749 17.223Z" fill="white"/>
<path fill-rule="evenodd" clip-rule="evenodd" d="M90.139 18.4959L90.437 19.8859V19.8849H91.552V13.2249C91.552 12.0859 91.267 11.2579 90.695 10.7409C90.125 10.2249 89.248 9.96692 88.063 9.96692C87.4717 9.96748 86.8827 10.0421 86.31 10.1889C85.7503 10.3279 85.2097 10.5344 84.7 10.8039L85.163 11.9339C86.208 11.4359 87.145 11.1869 87.972 11.1869C88.711 11.1869 89.246 11.3689 89.581 11.7339C89.917 12.0989 90.084 12.6649 90.084 13.4309V14.0359L88.398 14.0879C85.19 14.1839 83.585 15.2159 83.585 17.1879C83.585 18.1069 83.866 18.8169 84.424 19.3159C84.983 19.8139 85.755 20.0639 86.74 20.0639C87.478 20.0639 88.092 19.9549 88.584 19.7379C89.076 19.5209 89.571 19.1069 90.066 18.4959H90.139ZM89.246 18.0869C88.711 18.5909 87.976 18.8439 87.039 18.8439C86.447 18.8439 85.987 18.7039 85.657 18.4259C85.327 18.1459 85.163 17.7399 85.163 17.2059C85.163 16.5219 85.428 16.0189 85.956 15.6959C86.485 15.3719 87.347 15.1889 88.543 15.1479L90.048 15.0859V15.9679C90.048 16.8769 89.78 17.5819 89.246 18.0869Z" fill="white"/>
<path d="M94.5601 19.885H96.0641V6.03101H94.5601V19.885Z" fill="white"/>
<path fill-rule="evenodd" clip-rule="evenodd" d="M99.9 18.746C100.749 19.623 101.908 20.063 103.376 20.063C104.047 20.063 104.619 20.015 105.094 19.916C105.612 19.8043 106.117 19.6418 106.603 19.431V18.113C105.601 18.5433 104.522 18.7677 103.431 18.773C102.416 18.773 101.629 18.475 101.07 17.883C100.511 17.288 100.216 16.418 100.186 15.273H107.029V14.338C107.029 13.021 106.666 11.959 105.941 11.155C105.217 10.35 104.231 9.94897 102.987 9.94897C101.657 9.94897 100.598 10.411 99.81 11.338C99.022 12.264 98.627 13.513 98.627 15.086C98.627 16.646 99.051 17.866 99.9 18.746ZM101.061 11.952C101.535 11.441 102.172 11.186 102.969 11.186C103.754 11.186 104.358 11.433 104.781 11.929C105.204 12.424 105.416 13.139 105.416 14.072H100.223C100.307 13.168 100.586 12.462 101.061 11.952Z" fill="white"/>
<path d="M115.909 17.223C115.909 18.131 115.564 18.832 114.876 19.325C114.187 19.817 113.221 20.063 111.976 20.063C110.658 20.063 109.631 19.859 108.893 19.449V18.077C109.371 18.315 109.883 18.501 110.43 18.639C110.947 18.7711 111.478 18.8396 112.012 18.843C112.797 18.843 113.402 18.72 113.824 18.474C114.247 18.228 114.459 17.851 114.459 17.348C114.459 16.968 114.291 16.642 113.956 16.372C113.62 16.102 112.966 15.783 111.993 15.416C111.069 15.076 110.412 14.781 110.022 14.53C109.632 14.277 109.342 13.991 109.152 13.67C108.962 13.35 108.866 12.967 108.866 12.522C108.866 11.726 109.196 11.098 109.855 10.638C110.514 10.178 111.417 9.948 112.564 9.948C113.634 9.948 114.68 10.162 115.7 10.59L115.165 11.792C114.169 11.388 113.265 11.186 112.455 11.186C111.743 11.186 111.205 11.296 110.842 11.516C110.479 11.734 110.298 12.038 110.298 12.424C110.298 12.684 110.366 12.908 110.503 13.092C110.638 13.275 110.858 13.45 111.16 13.617C111.462 13.783 112.042 14.023 112.9 14.338C114.078 14.76 114.875 15.184 115.288 15.611C115.702 16.039 115.908 16.576 115.908 17.223" fill="white"/>
<path d="M118.046 18.942C118.046 18.543 118.139 18.242 118.323 18.038C118.507 17.833 118.771 17.731 119.115 17.731C119.465 17.731 119.74 17.833 119.935 18.038C120.132 18.242 120.231 18.543 120.231 18.942C120.231 19.327 120.131 19.624 119.931 19.832C119.731 20.039 119.459 20.143 119.115 20.143C118.807 20.143 118.553 20.05 118.349 19.863C118.147 19.677 118.046 19.369 118.046 18.942Z" fill="white"/>
<path d="M127.642 9.94893C128.04 9.94479 128.438 9.9803 128.829 10.0549L128.622 11.4269C128.265 11.3444 127.9 11.2998 127.534 11.2939C126.73 11.2939 126.042 11.6139 125.472 12.2539C124.901 12.8949 124.615 13.6939 124.615 14.6499V19.8849H123.111V10.1259H124.352L124.525 11.9339H124.597C124.965 11.2979 125.409 10.8079 125.929 10.4639C126.435 10.124 127.032 9.94455 127.642 9.94893Z" fill="white"/>
<path d="M132.008 10.127V16.457C132.008 17.252 132.193 17.847 132.561 18.237C132.93 18.63 133.507 18.826 134.292 18.826C135.332 18.826 136.092 18.546 136.572 17.989C137.052 17.431 137.292 16.52 137.292 15.255V10.127H138.796V19.885H137.556L137.338 18.577H137.256C136.948 19.057 136.521 19.425 135.973 19.681C135.427 19.935 134.803 20.063 134.103 20.063C132.893 20.063 131.989 19.781 131.387 19.218C130.787 18.654 130.485 17.751 130.485 16.511V10.127L132.008 10.127Z" fill="white"/>
</svg>
