<svg width="19" height="32" viewBox="0 0 19 32" fill="none" xmlns="http://www.w3.org/2000/svg">
<path fill-rule="evenodd" clip-rule="evenodd" d="M18 8.50203C18 13.1884 14.1878 17 9.5 17C4.81263 17 1 13.1884 1 8.50203C1 3.81359 4.81263 0 9.5 0C14.1882 0 18 3.81318 18 8.50203ZM13.0193 8.50203C13.0193 6.56106 11.4407 4.98224 9.5 4.98224C7.56093 4.98224 5.98112 6.56065 5.98152 8.50203C5.98152 10.4414 7.56053 12.0202 9.5 12.0202C11.4403 12.0202 13.0193 10.4414 13.0193 8.50203Z" fill="white"/>
<path fill-rule="evenodd" clip-rule="evenodd" d="M12.9247 23.3682C14.6662 22.9864 16.3282 22.3241 17.8404 21.409C18.9996 20.707 19.3481 19.2333 18.6188 18.1175C18.269 17.5811 17.7119 17.2006 17.0704 17.0598C16.4289 16.919 15.7556 17.0296 15.1988 17.367C11.7305 19.4658 7.26661 19.4643 3.80117 17.367C3.24447 17.0295 2.57116 16.9189 1.92968 17.0597C1.2882 17.2005 0.731221 17.581 0.381533 18.1175C-0.348025 19.233 -7.83205e-05 20.7066 1.15874 21.409C2.6708 22.3237 4.33246 22.9861 6.07364 23.3682L1.34109 27.9243C0.714595 28.5276 0.470037 29.4067 0.699538 30.2305C0.92904 31.0544 1.59773 31.6978 2.45373 31.9185C3.30973 32.1391 4.22298 31.9034 4.84948 31.3001L9.49896 26.824L14.1513 31.3005C14.6158 31.7484 15.2464 32 15.9038 32C16.5613 32 17.1918 31.7484 17.6564 31.3005C18.1224 30.8534 18.3843 30.2461 18.3843 29.6128C18.3843 28.9795 18.1224 28.3722 17.6564 27.9251L12.9247 23.3682Z" fill="white"/>
</svg>
