<svg width="26" height="21" viewBox="0 0 26 21" fill="none" xmlns="http://www.w3.org/2000/svg">
<path d="M25.7058 2.78507C24.7676 3.18827 23.7752 3.4515 22.7605 3.56632C23.8333 2.94886 24.6422 1.95924 25.0339 0.785068C24.0316 1.36944 22.9383 1.78142 21.7996 2.00382C20.8169 0.995266 19.4655 0.430997 18.0574 0.441318C15.2588 0.419628 12.9702 2.66627 12.9402 5.46476C12.9401 5.84625 12.9847 6.22644 13.073 6.59757C8.95042 6.42042 5.09326 4.51453 2.448 1.34757C1.99208 2.11312 1.75181 2.98779 1.75269 3.87882C1.76182 5.56089 2.61612 7.12564 4.02612 8.04288C3.20659 8.02181 2.40358 7.80768 1.68237 7.41788V7.48038C1.70021 9.89642 3.42537 11.962 5.79956 12.4101C5.35907 12.53 4.90452 12.5904 4.448 12.5898C4.12286 12.5889 3.79851 12.5575 3.47925 12.496C4.17034 14.5602 6.09167 15.9612 8.26831 15.9882C6.11023 17.6321 3.40204 18.3819 0.705811 18.0819C3.06159 19.5659 5.78877 20.354 8.573 20.3554C16.482 20.4947 23.0093 14.2017 23.1589 6.29288C23.1589 6.21476 23.1589 6.13663 23.1589 6.05851V5.41007C24.158 4.69432 25.0206 3.80525 25.7058 2.78507Z" fill="#F6F5FA"/>
</svg>
