<svg width="29" height="17" viewBox="0 0 29 17" fill="none" xmlns="http://www.w3.org/2000/svg">
<path fill-rule="evenodd" clip-rule="evenodd" d="M13.7289 16.6593H15.4008C15.6843 16.627 15.9513 16.5088 16.1668 16.3204C16.3225 16.101 16.4043 15.8371 16.4003 15.5673C16.4003 15.5673 16.4003 13.2799 17.4091 12.941C18.4178 12.6021 19.7535 15.1531 21.1453 16.1321C21.672 16.5577 22.3407 16.7633 23.0134 16.7063L26.7497 16.6499C26.7497 16.6499 28.7112 16.5275 27.7771 14.9555C27.0355 13.7103 26.0878 12.6023 24.9749 11.6796C22.6305 9.45803 22.9387 9.79691 25.7689 5.98448C27.4876 3.64996 28.1788 2.21912 27.9639 1.60725C27.7491 0.995378 26.4975 1.17423 26.4975 1.17423H22.2849C22.099 1.15013 21.9102 1.18293 21.7431 1.26837C21.5819 1.3879 21.4534 1.54658 21.3695 1.72962C20.9323 2.88396 20.4109 4.00408 19.8096 5.08079C17.9415 8.32842 17.1849 8.49786 16.8766 8.30018C16.1668 7.82951 16.3442 6.4175 16.3442 5.41026C16.3442 2.26619 16.8113 0.957724 15.4102 0.618842C14.7655 0.460945 14.1022 0.39441 13.4393 0.42116C12.2622 0.311001 11.0751 0.435753 9.94591 0.788283C9.46954 1.02362 9.09591 1.56018 9.32009 1.58842C9.80068 1.63209 10.2459 1.86148 10.5624 2.22853C10.855 2.83153 10.9991 3.49667 10.9827 4.16769C10.9827 4.16769 11.2349 7.86716 10.4036 8.32842C9.83382 8.64847 9.05855 7.99895 7.38658 5.05255C6.83536 4.03342 6.34867 2.98015 5.92945 1.89906C5.86298 1.72089 5.75764 1.56004 5.62121 1.42839C5.42632 1.29742 5.20705 1.20775 4.97671 1.16482L0.950903 1.18365C0.950903 1.18365 0.353105 1.18365 0.12893 1.46605C-0.0952445 1.74845 0.12893 2.19088 0.12893 2.19088C0.12893 2.19088 3.26737 9.66512 6.8168 13.4305C8.58653 15.4344 11.1048 16.6045 13.7662 16.6593H13.7289Z" fill="#F6F5FA"/>
</svg>
